HIERARCHY
ROOT hips
{
  OFFSET 0 10.6860622 2.3727825e-15
  CHANNELS 6 Xposition Yposition Zposition Yrotation Xrotation Zrotation
  JOINT leftUpperLeg
  {
    OFFSET 0.6642549969 -0.9402397400000004 0
    CHANNELS 3 Yrotation Xrotation Zrotation
    JOINT leftLowerLeg
    {
      OFFSET 0 -3.997221335632195 0
      CHANNELS 3 Yrotation Xrotation Zrotation
      JOINT leftFoot
      {
        OFFSET -0.13777839790000004 -4.6145792000000005 -0.22186036399999998
        CHANNELS 3 Yrotation Xrotation Zrotation
        JOINT leftToes
        {
          OFFSET -0.03777410834999995 -0.9130806927000008 0.85230013
          CHANNELS 3 Yrotation Xrotation Zrotation
          End Site
          {
            OFFSET -0.03777410834999995 -0.9130806927000008 0.85230013
          }
        }
      }
    }
  }
  JOINT rightUpperLeg
  {
    OFFSET -0.6642778626 -0.9402397400000004 0
    CHANNELS 3 Yrotation Xrotation Zrotation
    JOINT rightLowerLeg
    {
      OFFSET 0 -3.997221452859387 0
      CHANNELS 3 Yrotation Xrotation Zrotation
      JOINT rightFoot
      {
        OFFSET 0.1377926176 -4.6145792000000005 -0.22185782299999995
        CHANNELS 3 Yrotation Xrotation Zrotation
        JOINT rightToes
        {
          OFFSET 0.037780746850000047 -0.9130806927000008 0.85230167
          CHANNELS 3 Yrotation Xrotation Zrotation
          End Site
          {
            OFFSET 0.037780746850000047 -0.9130806927000008 0.85230167
          }
        }
      }
    }
  }
  JOINT spine
  {
    OFFSET 0 0.13988381660000015 0
    CHANNELS 3 Yrotation Xrotation Zrotation
    JOINT chest
    {
      OFFSET 0 0.6191039003973773 0
      CHANNELS 3 Yrotation Xrotation Zrotation
      JOINT upperChest
      {
        OFFSET 0 0.9855186130586943 0
        CHANNELS 3 Yrotation Xrotation Zrotation
        JOINT leftShoulder
        {
          OFFSET 0.1807663869 1.5087829790000005 0
          CHANNELS 3 Yrotation Xrotation Zrotation
          JOINT leftUpperArm
          {
            OFFSET 0.5985063006419806 0 0
            CHANNELS 3 Yrotation Xrotation Zrotation
            JOINT leftLowerArm
            {
              OFFSET 2.2993332369501065 0 0
              CHANNELS 3 Yrotation Xrotation Zrotation
              JOINT leftHand
              {
                OFFSET 2.395047042602395 0 0
                CHANNELS 3 Yrotation Xrotation Zrotation
                JOINT leftIndexProximal
                {
                  OFFSET 0.5766295810000004 0.04556643899499946 0.17265095988184
                  CHANNELS 3 Yrotation Xrotation Zrotation
                  JOINT leftIndexIntermediate
                  {
                    OFFSET 0.2957229000000008 -0.019352197700001517 -0.007932640616999987
                    CHANNELS 3 Yrotation Xrotation Zrotation
                    JOINT leftIndexDistal
                    {
                      OFFSET 0.19008243099999922 -0.012484908149998475 -0.002786250786000012
                      CHANNELS 3 Yrotation Xrotation Zrotation
                      End Site
                      {
                        OFFSET 0.19008243099999922 -0.012484908149998475 -0.002786250786000012
                      }
                    }
                  }
                }
                JOINT leftMiddleProximal
                {
                  OFFSET 0.5834975091000001 0.0524350405149987 0.02204081888183999
                  CHANNELS 3 Yrotation Xrotation Zrotation
                  JOINT leftMiddleIntermediate
                  {
                    OFFSET 0.33880573540000003 -0.019871473270000717 -0.00000971183179999946
                    CHANNELS 3 Yrotation Xrotation Zrotation
                    JOINT leftMiddleDistal
                    {
                      OFFSET 0.20676022730000088 -0.012221336379999448 0.0001471936708000235
                      CHANNELS 3 Yrotation Xrotation Zrotation
                      End Site
                      {
                        OFFSET 0.20676022730000088 -0.012221336379999448 0.0001471936708000235
                      }
                    }
                  }
                }
                JOINT leftLittleProximal
                {
                  OFFSET 0.5344154683999995 -0.012880921405001189 -0.24414037221816004
                  CHANNELS 3 Yrotation Xrotation Zrotation
                  JOINT leftLittleIntermediate
                  {
                    OFFSET 0.21758961730000093 -0.011650919939999227 0.011893592810000034
                    CHANNELS 3 Yrotation Xrotation Zrotation
                    JOINT leftLittleDistal
                    {
                      OFFSET 0.1475273964999999 -0.008152365682999818 0.006001092492999946
                      CHANNELS 3 Yrotation Xrotation Zrotation
                      End Site
                      {
                        OFFSET 0.1475273964999999 -0.008152365682999818 0.006001092492999946
                      }
                    }
                  }
                }
                JOINT leftRingProximal
                {
                  OFFSET 0.5799399463000003 0.026911854694997794 -0.12150566991816003
                  CHANNELS 3 Yrotation Xrotation Zrotation
                  JOINT leftRingIntermediate
                  {
                    OFFSET 0.26167887460000006 -0.013480186499999602 0.010996293000000053
                    CHANNELS 3 Yrotation Xrotation Zrotation
                    JOINT leftRingDistal
                    {
                      OFFSET 0.17667108799999987 -0.008990287899999228 0.0055541023999999065
                      CHANNELS 3 Yrotation Xrotation Zrotation
                      End Site
                      {
                        OFFSET 0.17667108799999987 -0.008990287899999228 0.0055541023999999065
                      }
                    }
                  }
                }
                JOINT leftThumbProximal
                {
                  OFFSET 0.11018806699999972 -0.09448718900500053 0.17047963138184
                  CHANNELS 3 Yrotation Xrotation Zrotation
                  JOINT leftThumbIntermediate
                  {
                    OFFSET 0.31062601459999983 -0.08126270900000132 0.15443142000000007
                    CHANNELS 3 Yrotation Xrotation Zrotation
                    JOINT leftThumbDistal
                    {
                      OFFSET 0.21627175790000086 -0.08833193599999878 0.018771167799999988
                      CHANNELS 3 Yrotation Xrotation Zrotation
                      End Site
                      {
                        OFFSET 0.21627175790000086 -0.08833193599999878 0.018771167799999988
                      }
                    }
                  }
                }
              }
            }
          }
        }
        JOINT neck
        {
          OFFSET 0 1.5463305265074576 0
          CHANNELS 3 Yrotation Xrotation Zrotation
          JOINT head
          {
            OFFSET 0 0.8456443600000344 0
            CHANNELS 3 Yrotation Xrotation Zrotation
            JOINT leftEye
            {
              OFFSET 0.30408573140000006 0.5104519199999995 0.1276382305
              CHANNELS 3 Yrotation Xrotation Zrotation
              End Site
              {
                OFFSET 0.30408573140000006 0.5104519199999995 0.1276382305
              }
            }
            JOINT rightEye
            {
              OFFSET -0.30409491089999996 0.5104519199999995 0.1276379445
              CHANNELS 3 Yrotation Xrotation Zrotation
              End Site
              {
                OFFSET -0.30409491089999996 0.5104519199999995 0.1276379445
              }
            }
            JOINT jaw
            {
              OFFSET -3.155239131000001e-7 -0.11984121820000082 0.60178107
              CHANNELS 3 Yrotation Xrotation Zrotation
              End Site
              {
                OFFSET -3.155239131000001e-7 -0.11984121820000082 0.60178107
              }
            }
          }
        }
        JOINT rightShoulder
        {
          OFFSET -0.1807303465 1.5087829790000005 0
          CHANNELS 3 Yrotation Xrotation Zrotation
          JOINT rightUpperArm
          {
            OFFSET -0.5985063796536958 0 0
            CHANNELS 3 Yrotation Xrotation Zrotation
            JOINT rightLowerArm
            {
              OFFSET -2.2993322059002854 0 0
              CHANNELS 3 Yrotation Xrotation Zrotation
              JOINT rightHand
              {
                OFFSET -2.395045314457259 0 0
                CHANNELS 3 Yrotation Xrotation Zrotation
                JOINT rightIndexProximal
                {
                  OFFSET -0.5764487688300002 0.0441371204405987 0.17361932004999997
                  CHANNELS 3 Yrotation Xrotation Zrotation
                  JOINT rightIndexIntermediate
                  {
                    OFFSET -0.29573011380000047 -0.01934826376999843 -0.007698921482999974
                    CHANNELS 3 Yrotation Xrotation Zrotation
                    JOINT rightIndexDistal
                    {
                      OFFSET -0.19008373999999884 -0.012503266380000655 -0.0026365778999999897
                      CHANNELS 3 Yrotation Xrotation Zrotation
                      End Site
                      {
                        OFFSET -0.19008373999999884 -0.012503266380000655 -0.0026365778999999897
                      }
                    }
                  }
                }
                JOINT rightMiddleProximal
                {
                  OFFSET -0.5834852037300005 0.05211639405060153 0.02307162440000001
                  CHANNELS 3 Yrotation Xrotation Zrotation
                  JOINT rightMiddleIntermediate
                  {
                    OFFSET -0.33880114510000003 -0.019952774050000954 0.0002455003561999819
                    CHANNELS 3 Yrotation Xrotation Zrotation
                    JOINT rightMiddleDistal
                    {
                      OFFSET -0.20675694929999955 -0.012273788999999091 0.00030209124000002766
                      CHANNELS 3 Yrotation Xrotation Zrotation
                      End Site
                      {
                        OFFSET -0.20675694929999955 -0.012273788999999091 0.00030209124000002766
                      }
                    }
                  }
                }
                JOINT rightLittleProximal
                {
                  OFFSET -0.5346811737299992 -0.011214256288399227 -0.24363941305000003
                  CHANNELS 3 Yrotation Xrotation Zrotation
                  JOINT rightLittleIntermediate
                  {
                    OFFSET -0.21757715980000092 -0.011771559690000988 0.01201554387
                    CHANNELS 3 Yrotation Xrotation Zrotation
                    JOINT rightLittleDistal
                    {
                      OFFSET -0.1475201849000004 -0.00822055339600003 0.006082065407000015
                      CHANNELS 3 Yrotation Xrotation Zrotation
                      End Site
                      {
                        OFFSET -0.1475201849000004 -0.00822055339600003 0.006082065407000015
                      }
                    }
                  }
                }
                JOINT rightRingProximal
                {
                  OFFSET -0.5800810755299999 0.027657985680600072 -0.12066365025000003
                  CHANNELS 3 Yrotation Xrotation Zrotation
                  JOINT rightRingIntermediate
                  {
                    OFFSET -0.26166445029999974 -0.013623118409999302 0.011164098990000045
                    CHANNELS 3 Yrotation Xrotation Zrotation
                    JOINT rightRingDistal
                    {
                      OFFSET -0.17666387530000027 -0.009072900100000503 0.005668185599999959
                      CHANNELS 3 Yrotation Xrotation Zrotation
                      End Site
                      {
                        OFFSET -0.17666387530000027 -0.009072900100000503 0.005668185599999959
                      }
                    }
                  }
                }
                JOINT rightThumbProximal
                {
                  OFFSET -0.10997596379000074 -0.09577489355940072 0.16989765924999997
                  CHANNELS 3 Yrotation Xrotation Zrotation
                  JOINT rightThumbIntermediate
                  {
                    OFFSET -0.31036620999999986 -0.08229339117999834 0.15440884469999996
                    CHANNELS 3 Yrotation Xrotation Zrotation
                    JOINT rightThumbDistal
                    {
                      OFFSET -0.21631306399999906 -0.08825326400000111 0.018656797720000014
                      CHANNELS 3 Yrotation Xrotation Zrotation
                      End Site
                      {
                        OFFSET -0.21631306399999906 -0.08825326400000111 0.018656797720000014
                      }
                    }
                  }
                }
              }
            }
          }
        }
      }
    }
  }
}
MOTION
Frames: 6
Frame Time: 0.03333333333333333
0 -10.026466959239475 0 -90.55012541777478 -40.0006260530962 90.00026435664905 120.90278131577284 -60.494892516853376 -77.97662072070598 0.43765814013977017 -5.5652650590804305 -1.1473124235853323 -7.82050692194182 14.43155537114501 4.5672440856294205 0 0 0 26.07081353694839 -71.83299183297311 -50.2797112699379 -13.314326868753918 66.07739329918093 -17.53928003508638 0.031912373963172584 15.14764325376819 16.06699685201243 0 0 0 -6.268939552107247 5.273646996135089 -21.727045212018538 -14.332335866044154 7.711769089880176 -26.83727101644549 0 0 0 -27.258451161899398 6.483541651359275 -20.87583167017783 29.5320582577708 -40.127158135916574 -2.3237177716598456 -39.93741977797806 6.970812077079735 5.035737893303106 -21.60767985438241 -59.64620581232243 1.8580220768734477 0 0 0 0 0 0 0 0 0 0 0 0 0 0 0 0 0 0 0 0 0 0 0 0 0 0 0 0 0 0 0 0 0 0 0 0 0 0 0 0 0 0 0 0 0 -20.32164394829701 -39.07539487108928 0.6699696774292896 -26.61424063887468 -18.274084546549954 24.42938231403979 0 0 0 0 0 0 0 0 0 -33.41554184615264 5.286035735312766 -1.2850697439102794 33.08313392427904 28.693987396213732 13.764360508554752 49.46656372445028 16.106190841850466 -45.35189125068731 4.030985528634976 10.004255911303877 5.750392426858594 0 0 0 0 0 0 0 0 0 0 0 0 0 0 0 0 0 0 0 0 0 0 0 0 0 0 0 0 0 0 0 0 0 0 0 0 0 0 0 0 0 0 0 0 0
0 -10.026466959239475 0 -91.09781323775839 -40.00060822057757 90.00081704239375 121.06749821290916 -60.4336452139543 -78.06281382369941 0.43765814013977017 -5.5652650590804305 -1.1473124235853323 -8.374835800506778 14.427132471341189 4.524428629468177 0 0 0 24.461462453728938 -71.46048946729756 -48.49587769091608 -13.227790764573221 65.95671612157905 -17.431711551480646 -0.07558241382202688 15.157376572600274 16.108737444720852 0 0 0 -6.37482708571134 5.695543414972749 -21.4599996435117 -14.380307653517432 8.025602162100554 -27.011501577056386 0 0 0 -27.258454263792153 6.483541221724651 -20.87583167017783 29.514905425469316 -39.21662859251371 -2.3040344112105595 -40.48447583344595 6.970779822144043 5.035755457941272 -21.60767985438241 -59.64620581232243 1.8580220768734477 0 0 0 0 0 0 0 0 0 0 0 0 0 0 0 0 0 0 0 0 0 0 0 0 0 0 0 0 0 0 0 0 0 0 0 0 0 0 0 0 0 0 0 0 0 -20.32164394829701 -39.07539487108928 0.6699696774292896 -26.61424063887468 -18.274084546549954 24.42938395128374 0 0 0 0 0 0 0 0 0 -33.313158546209856 5.360024383879981 -1.2222363716406262 33.08313392427904 28.693987396213732 13.764360508554752 49.31144446408476 15.95817834456998 -45.249272338912924 3.9743576173431334 9.747706235906293 5.343283670748124 0 0 0 0 0 0 0 0 0 0 0 0 0 0 0 0 0 0 0 0 0 0 0 0 0 0 0 0 0 0 0 0 0 0 0 0 0 0 0 0 0 0 0 0 0
0 -10.026466959239475 0 -92.19501767612566 -40.00055918117535 90.00194103829396 121.39548320944569 -60.31076458044709 -78.23367746630066 0.43765814013977017 -5.5652650590804305 -1.1473124235853323 -9.48527226260588 14.417072178011969 4.438804748320406 0 0 0 21.436821562231597 -70.6684128398486 -45.12080040878466 -13.057562398535113 65.71511964561019 -17.219387638005205 -0.2905853019042113 15.177069249895407 16.1921723903322 0 0 0 -6.581219269441457 6.541330829982252 -20.925776706991293 -14.479334375186118 8.65327713579782 -27.361426931264802 0 0 0 -27.258454263792153 6.483541221724651 -20.87583167017783 29.48226966689526 -37.387041469408295 -2.2662531205765433 -41.580418814825 6.97071961293669 5.035794140863731 -21.60767985438241 -59.64620581232243 1.8580220768734477 0 0 0 0 0 0 0 0 0 0 0 0 0 0 0 0 0 0 0 0 0 0 0 0 0 0 0 0 0 0 0 0 0 0 0 0 0 0 0 0 0 0 0 0 0 -20.32164394829701 -39.07539487108928 0.6699696774292896 -26.614237423472403 -18.274084546549954 24.429377552153174 0 0 0 0 0 0 0 0 0 -33.108100203979056 5.507680464315811 -1.0961368749440314 33.08313392427904 28.693987396213732 13.764360508554752 49.00060981618537 15.662850539150407 -45.042943885976165 3.8666447909183224 9.232803803523451 4.529729459280628 0 0 0 0 0 0 0 0 0 0 0 0 0 0 0 0 0 0 0 0 0 0 0 0 0 0 0 0 0 0 0 0 0 0 0 0 0 0 0 0 0 0 0 0 0
0 -10.026466959239475 0 -92.74442995844306 -40.000527974301356 90.00250205963412 121.55871980578556 -60.24914632349298 -78.31831906427092 0.43765814013977017 -5.5652650590804305 -1.1473124235853323 -10.041277294127722 14.411431313198657 4.396011074198485 0 0 0 20.019134813732425 -70.2506235494483 -43.52717641489068 -12.973848058659248 65.59422633284625 -17.11460871803676 -0.39809090923780627 15.187030399342445 16.233865179884123 0 0 0 -6.681690030503159 6.965141263427038 -20.658591330931518 -14.53039481567751 8.967084325946809 -27.537132570001873 0 0 0 -27.258454263792153 6.483541221724651 -20.87583167017783 29.466740825911035 -36.46842233923113 -2.248113463214214 -42.12919160998153 6.970687358007362 5.035812688711041 -21.60767985438241 -59.64620581232243 1.8580220768734477 0 0 0 0 0 0 0 0 0 0 0 0 0 0 0 0 0 0 0 0 0 0 0 0 0 0 0 0 0 0 0 0 0 0 0 0 0 0 0 0 0 0 0 0 0 -20.32164394829701 -39.07539487108928 0.6699696774292896 -26.614239031173565 -18.274084546549954 24.429377552153174 0 0 0 0 0 0 0 0 0 -33.00541689919816 5.581345918041092 -1.0328700427858817 33.08313392427904 28.693987396213732 13.764360508554752 48.84489842508447 15.515546433131306 -44.93923547635466 3.8155695304501784 8.974512518758514 4.1233099278983305 0 0 0 0 0 0 0 0 0 0 0 0 0 0 0 0 0 0 0 0 0 0 0 0 0 0 0 0 0 0 0 0 0 0 0 0 0 0 0 0 0 0 0 0 0
0 -10.026466959239475 0 -93.29384164546636 -40.00049230931998 90.00306266729663 121.72146909408589 -60.187403367142196 -78.40244822457808 0.43765814013977017 -5.5652650590804305 -1.1473124235853323 -10.597263212646757 14.40538951376609 4.35327663817106 0 0 0 18.664257090548844 -69.82006547420791 -41.996137486475114 -12.891053219398142 65.47325913048526 -17.01074064306876 -0.5055940925425805 15.197066334712222 16.275539104769837 0 0 0 -6.780279381683596 7.390103405842012 -20.39297394108672 -14.582476817131774 9.28073560082988 -27.713275943409773 0 0 0 -27.258454263792153 6.483541221724651 -20.87583167017783 29.451749771801687 -35.54979189581185 -2.2304896953562503 -42.67795893752784 6.970655103080254 5.035831664960677 -21.60767985438241 -59.64620581232243 1.8580220768734477 0 0 0 0 0 0 0 0 0 0 0 0 0 0 0 0 0 0 0 0 0 0 0 0 0 0 0 0 0 0 0 0 0 0 0 0 0 0 0 0 0 0 0 0 0 -20.32164394829701 -39.07539487108928 0.6699696774292896 -26.614239031173565 -18.274084546549954 24.429379189397135 0 0 0 0 0 0 0 0 0 -32.90263981349044 5.6548983706677385 -0.9694625548239919 33.08313392427904 28.693987396213732 13.764360508554752 48.68902626288907 15.368515621492312 -44.83518582976127 3.766385179979904 8.715870333875595 3.717408195575402 0 0 0 0 0 0 0 0 0 0 0 0 0 0 0 0 0 0 0 0 0 0 0 0 0 0 0 0 0 0 0 0 0 0 0 0 0 0 0 0 0 0 0 0 0
0 -10.026466959239475 0 -94.39407658774812 -40.00040314694804 90.00417027096564 122.04556126675472 -60.0635595624025 -78.5692219853193 0.43765814013977017 -5.5652650590804305 -1.1473124235853323 -11.710601232303238 14.392077681614476 4.267894553181032 0 0 0 16.12914556960654 -68.92195334555741 -39.107250210041165 -12.728170914261195 65.23113759359188 -16.80567827850158 -0.7206079274728101 15.217369685614194 16.358848330395787 0 0 0 -6.971976223381083 8.241650989702926 -19.86145827304388 -14.689782688300488 9.907899347697926 -28.067128282965758 0 0 0 -27.258454263792153 6.483541221724651 -20.87583167017783 29.42318181427153 -33.70580122757037 -2.1965657309149824 -43.77692439325369 6.970594033757678 5.035871204673563 -21.60767985438241 -59.64620581232243 1.8580220768734477 0 0 0 0 0 0 0 0 0 0 0 0 0 0 0 0 0 0 0 0 0 0 0 0 0 0 0 0 0 0 0 0 0 0 0 0 0 0 0 0 0 0 0 0 0 -20.32164394829701 -39.07539487108928 0.6699696774292896 -26.614239031173565 -18.274084546549954 24.429379189397135 0 0 0 0 0 0 0 0 0 -32.69677845420257 5.801675741474319 -0.8422168484865652 33.08313392427904 28.693987396213732 13.764360508554752 48.376679641641864 15.075191664140263 -44.626002099790895 3.673588654332843 8.197081243637664 2.9063038190753945 0 0 0 0 0 0 0 0 0 0 0 0 0 0 0 0 0 0 0 0 0 0 0 0 0 0 0 0 0 0 0 0 0 0 0 0 0 0 0 0 0 0 0 0 0
